<?xml version="1.0" encoding="utf-8"?>
<!-- Generator: Adobe Illustrator 23.1.1, SVG Export Plug-In . SVG Version: 6.00 Build 0)  -->
<svg version="1.1" id="Layer_1" xmlns="http://www.w3.org/2000/svg" xmlns:xlink="http://www.w3.org/1999/xlink" x="0px" y="0px"
	 viewBox="0 0 512 440" style="enable-background:new 0 0 512 440;" xml:space="preserve">
<ellipse transform="matrix(0.7071 -0.7071 0.7071 0.7071 -118.8743 389.8963)" style="fill:#9AE6B4;" cx="411.2" cy="338.4" rx="92.8" ry="92.8"/>
<ellipse transform="matrix(0.7071 -0.7071 0.7071 0.7071 -210.0841 169.6964)" style="fill:#9AE6B4;" cx="99.8" cy="338.4" rx="92.8" ry="92.8"/>
<path style="fill:#9AE6B4;" d="M444.5,30.9c0,0-113.8-21.4-189.6-21.4c-75.7,0-188.4,21.4-188.4,21.4l22.4,191.7
	c65.6,13.1,123.4,47.8,165.7,96.3l0.2,0.1c42.7-49,101-83.8,167.3-96.7L444.5,30.9z"/>
<g>
	<path style="fill:#4A5568;" d="M99.8,245.7C48.6,245.7,7,287.2,7,338.4s41.5,92.8,92.8,92.8c51.2,0,92.8-41.5,92.8-92.8
		S151,245.7,99.8,245.7z M99.8,391.6c-29.3,0-53.1-23.8-53.1-53.1s23.8-53.1,53.1-53.1c29.3,0,53.1,23.8,53.1,53.1
		S129.1,391.6,99.8,391.6z"/>
	<path style="fill:#4A5568;" d="M411.2,245.7c-51.2,0-92.8,41.5-92.8,92.8s41.5,92.8,92.8,92.8c51.2,0,92.8-41.5,92.8-92.8
		S462.5,245.7,411.2,245.7z M411.2,391.6c-29.3,0-53.1-23.8-53.1-53.1s23.8-53.1,53.1-53.1c29.3,0,53.1,23.8,53.1,53.1
		S440.5,391.6,411.2,391.6z"/>
	<path style="fill:#4A5568;" d="M444.5,30.9c0,0-113.8-21.4-189.6-21.4c-75.7,0-188.4,21.4-188.4,21.4l22.4,191.7
		c65.6,13.1,123.4,47.8,165.7,96.3l0.2,0.1c42.7-49,101-83.8,167.3-96.7L444.5,30.9z M254.9,49.1c45.6,0,107.2,8.4,145.8,14.6
		l-13.4,114.2L338,123.8l26-19.7l-17.3-22.9L257.1,149l-89.6-67.7l-17.3,22.9l25,18.9l-51.4,56.7L110.3,63.6
		C148.6,57.5,209.5,49.1,254.9,49.1z M254.7,262.8c-31.8-28.3-68.7-50.5-108.5-65.1l51.9-57.3l58.9,44.5l57.9-43.8l50.7,55.6
		C325,211.4,287.2,233.9,254.7,262.8z"/>
</g>
</svg>
